#!OML:ASF F:\VICON\USERDATA\INSTALL\rory3\rory3.ASF
:FULLY-SPECIFIED
:DEGREES
726
root -0.108251 17.4296 -2.57878 7.7776 -27.4635 4.76122
lowerback 2.28492 -12.3379 -3.21781
upperback -0.000459464 -17.1553 14.2662
thorax 4.37545 -9.34605 16.6677
lowerneck -17.0491 13.9217 -3.21303
upperneck 28.4901 20.9065 -0.758966
head 11.9108 8.87883 3.29795
rclavicle -1.74931e-014 -9.54166e-015
rhumerus -18.286 -28.3289 -5.46689
rradius 45.0733
rwrist 26.2011
rhand -25.5853 4.11687
rfingers 7.12502
rthumb 0.946264 -25.8608
lclavicle -1.74931e-014 -9.54166e-015
lhumerus 42.08 -35.6143 83.1399
lradius 49.6346
lwrist -15.5037
lhand -26.3978 18.0952
lfingers 7.12502
lthumb 0.161528 48.0748
rfemur -32.2789 12.0592 8.16008
rtibia 44.1605
rfoot -12.5478 17.0253
rtoes 11.5469
lfemur -19.522 22.0214 -30.3232
ltibia 34.4271
lfoot -22.011 11.0763
ltoes -11.3108
727
root -0.105209 17.43 -2.58567 7.73948 -27.3285 4.63067
lowerback 2.3178 -12.3126 -3.14973
upperback 0.0220089 -17.1136 14.2268
thorax 4.33279 -9.31703 16.596
lowerneck -17.2125 13.9051 -3.13273
upperneck 28.6634 20.8269 -0.565416
head 11.9934 8.86006 3.36661
rclavicle -7.95139e-015 5.08889e-014
rhumerus -18.2295 -28.2094 -5.63746
rradius 45.0474
rwrist 26.0419
rhand -25.6172 4.27618
rfingers 7.12502
rthumb 0.915494 -25.7016
lclavicle -7.95139e-015 5.08889e-014
lhumerus 42.0761 -35.5941 82.9854
lradius 49.588
lwrist -15.4077
lhand -26.2714 17.8594
lfingers 7.12502
lthumb 0.283663 47.839
rfemur -32.1306 12.0173 8.31739
rtibia 44.1193
rfoot -12.5694 16.9902
rtoes 11.2938
lfemur -19.4716 21.88 -30.1474
ltibia 34.5023
lfoot -22.0219 11.1177
ltoes -11.5804
728
root -0.10449 17.4291 -2.59479 7.68992 -27.2424 4.52912
lowerback 2.38275 -12.2486 -3.19452
upperback 0.0177151 -17.0212 14.194
thorax 4.2633 -9.26518 16.6146
lowerneck -17.1406 13.8295 -3.03989
upperneck 28.5631 20.6738 -0.548867
head 11.9503 8.81245 3.32678
rclavicle 1.59028e-015 -5.725e-014
rhumerus -18.2282 -28.1242 -5.80212
rradius 45.1174
rwrist 26.0172
rhand -25.7244 4.10537
rfingers 7.12502
rthumb 0.811965 -25.8728
lclavicle 1.59028e-015 -5.725e-014
lhumerus 41.928 -35.5482 83.0376
lradius 49.489
lwrist -15.3488
lhand -26.1617 17.2169
lfingers 7.12502
lthumb 0.389568 47.1963
rfemur -32.0268 12.0614 8.44625
rtibia 44.0767
rfoot -12.575 16.8631
rtoes 11.1846
lfemur -19.4197 21.8143 -29.998
ltibia 34.5719
lfoot -22.0525 11.0405
ltoes -11.3552
729
root -0.103126 17.4282 -2.60697 7.58343 -27.0669 4.53144
lowerback 2.52419 -12.2456 -3.41522
upperback -0.0178857 -17.0183 14.1924
thorax 4.21167 -9.27025 16.7762
lowerneck -17.0432 13.7948 -2.9942
upperneck 28.3775 20.6171 -0.635865
head 11.8766 8.79614 3.26444
rclavicle -5.24792e-014 -4.77083e-014
rhumerus -17.8973 -28.1541 -6.08912
rradius 45.0728
rwrist 26.2867
rhand -25.801 3.95668
rfingers 7.12502
rthumb 0.737921 -26.0218
lclavicle -5.24792e-014 -4.77083e-014
lhumerus 41.7522 -35.1976 82.9973
lradius 49.4046
lwrist -15.565
lhand -25.9397 16.9305
lfingers 7.12502
lthumb 0.60395 46.9094
rfemur -31.8995 11.9495 8.49932
rtibia 44.0447
rfoot -12.5287 16.7926
rtoes 11.1295
lfemur -19.3588 21.6972 -29.9411
ltibia 34.619
lfoot -22.0157 11.0666
ltoes -11.3123
730
root -0.0991424 17.4312 -2.61736 7.56631 -26.7125 4.46077
lowerback 2.45743 -12.3046 -3.47176
upperback 0.00154992 -17.108 14.2001
thorax 4.32005 -9.32522 16.781
lowerneck -17.2289 13.7872 -3.02013
upperneck 28.3609 20.6203 -0.609968
head 11.8994 8.7944 3.29234
rclavicle 7.4743e-014 9.54166e-015
rhumerus -17.4695 -28.2014 -6.47945
rradius 44.9955
rwrist 26.4065
rhand -25.8999 3.80545
rfingers 7.12502
rthumb 0.642459 -26.1733
lclavicle 7.4743e-014 9.54166e-015
lhumerus 41.7702 -34.7463 82.6977
lradius 49.2732
lwrist -15.8998
lhand -25.7685 16.7738
lfingers 7.12502
lthumb 0.769303 46.7521
rfemur -31.7392 11.6508 8.62874
rtibia 44.0065
rfoot -12.4921 16.7625
rtoes 11.4592
lfemur -19.3234 21.4332 -29.817
ltibia 34.6277
lfoot -21.9763 11.0089
ltoes -11.1471
731
root -0.0960888 17.4343 -2.62735 7.57436 -26.3751 4.38911
lowerback 2.28644 -12.3875 -3.47799
upperback 0.0375442 -17.2332 14.1959
thorax 4.49633 -9.39819 16.7076
lowerneck -17.3544 13.8147 -3.11918
upperneck 28.2706 20.6905 -0.605528
head 11.8752 8.82071 3.32107
rclavicle 9.06458e-014 7.31528e-014
rhumerus -16.9658 -27.9549 -6.96391
rradius 45.0174
rwrist 26.3975
rhand -26.0868 3.30316
rfingers 7.12502
rthumb 0.461889 -26.6761
lclavicle 9.06458e-014 7.31528e-014
lhumerus 41.6679 -34.2002 82.6614
lradius 49.0271
lwrist -16.1012
lhand -25.6846 16.2347
lfingers 7.12502
lthumb 0.850365 46.2127
rfemur -31.6209 11.3982 8.74322
rtibia 43.9679
rfoot -12.5002 16.7401
rtoes 11.5794
lfemur -19.3213 21.1869 -29.707
ltibia 34.6068
lfoot -21.9129 10.9057
ltoes -11.208
732
root -0.095551 17.437 -2.63696 7.47064 -25.9803 4.47025
lowerback 2.30306 -12.5015 -3.68446
upperback -0.0343723 -17.395 14.2382
thorax 4.54179 -9.49321 16.8552
lowerneck -17.495 13.8256 -3.3833
upperneck 28.2056 20.7838 -0.581721
head 11.8421 8.84243 3.38207
rclavicle 1.74931e-014 3.49861e-014
rhumerus -16.2488 -27.6349 -7.38906
rradius 44.9326
rwrist 26.7177
rhand -26.8257 3.22489
rfingers 7.12502
rthumb -0.251738 -26.7547
lclavicle 1.74931e-014 3.49861e-014
lhumerus 41.3587 -33.5579 82.9046
lradius 48.8017
lwrist -16.274
lhand -25.7764 16.0071
lfingers 7.12502
lthumb 0.761666 45.9855
rfemur -31.431 11.0758 8.74122
rtibia 43.9302
rfoot -12.6668 16.6724
rtoes 11.0087
lfemur -19.24 20.9877 -29.723
ltibia 34.5836
lfoot -21.8503 10.7553
ltoes -11.3017
